<svg height="2750" width="720" xmlns="http://www.w3.org/2000/svg">
<rect height="2750" fill="#555" width="720"></rect>
<text fill="#7f7" font-family="Courier New" font-size="12" xml:space="preserve">
<tspan x="10" y="26">34 megabytes installed</tspan>
<tspan x="10" y="42"></tspan>
<tspan x="10" y="58">node_modules</tspan>
<tspan x="10" y="74">└─┬ plato@1.7.0 </tspan>
<tspan x="10" y="90">  ├─┬ eslint@3.0.1 </tspan>
<tspan x="10" y="106">  │ ├─┬ chalk@1.1.3 </tspan>
<tspan x="10" y="122">  │ │ ├── ansi-styles@2.2.1 </tspan>
<tspan x="10" y="138">  │ │ ├── escape-string-regexp@1.0.5 </tspan>
<tspan x="10" y="154">  │ │ ├── has-ansi@2.0.0 </tspan>
<tspan x="10" y="170">  │ │ ├── strip-ansi@3.0.1 </tspan>
<tspan x="10" y="186">  │ │ └── supports-color@2.0.0 </tspan>
<tspan x="10" y="202">  │ ├─┬ concat-stream@1.6.0 </tspan>
<tspan x="10" y="218">  │ │ ├─┬ readable-stream@2.2.9 </tspan>
<tspan x="10" y="234">  │ │ │ ├── buffer-shims@1.0.0 </tspan>
<tspan x="10" y="250">  │ │ │ ├── core-util-is@1.0.2 </tspan>
<tspan x="10" y="266">  │ │ │ ├── process-nextick-args@1.0.7 </tspan>
<tspan x="10" y="282">  │ │ │ ├── string_decoder@1.0.0 </tspan>
<tspan x="10" y="298">  │ │ │ └── util-deprecate@1.0.2 </tspan>
<tspan x="10" y="314">  │ │ └── typedarray@0.0.6 </tspan>
<tspan x="10" y="330">  │ ├─┬ debug@2.6.3 </tspan>
<tspan x="10" y="346">  │ │ └── ms@0.7.2 </tspan>
<tspan x="10" y="362">  │ ├─┬ doctrine@1.5.0 </tspan>
<tspan x="10" y="378">  │ │ └── isarray@1.0.0 </tspan>
<tspan x="10" y="394">  │ ├─┬ es6-map@0.1.5 </tspan>
<tspan x="10" y="410">  │ │ ├── d@1.0.0 </tspan>
<tspan x="10" y="426">  │ │ ├── es5-ext@0.10.15 </tspan>
<tspan x="10" y="442">  │ │ ├── es6-iterator@2.0.1 </tspan>
<tspan x="10" y="458">  │ │ ├── es6-set@0.1.5 </tspan>
<tspan x="10" y="474">  │ │ ├── es6-symbol@3.1.1 </tspan>
<tspan x="10" y="490">  │ │ └── event-emitter@0.3.5 </tspan>
<tspan x="10" y="506">  │ ├─┬ escope@3.6.0 </tspan>
<tspan x="10" y="522">  │ │ ├── es6-weak-map@2.0.2 </tspan>
<tspan x="10" y="538">  │ │ └─┬ esrecurse@4.1.0 </tspan>
<tspan x="10" y="554">  │ │   └── estraverse@4.1.1 </tspan>
<tspan x="10" y="570">  │ ├─┬ espree@3.4.1 </tspan>
<tspan x="10" y="586">  │ │ ├── acorn@5.0.3 </tspan>
<tspan x="10" y="602">  │ │ └─┬ acorn-jsx@3.0.1 </tspan>
<tspan x="10" y="618">  │ │   └── acorn@3.3.0 </tspan>
<tspan x="10" y="634">  │ ├── estraverse@4.2.0 </tspan>
<tspan x="10" y="650">  │ ├── esutils@2.0.2 </tspan>
<tspan x="10" y="666">  │ ├─┬ file-entry-cache@1.3.1 </tspan>
<tspan x="10" y="682">  │ │ ├─┬ flat-cache@1.2.2 </tspan>
<tspan x="10" y="698">  │ │ │ ├── circular-json@0.3.1 </tspan>
<tspan x="10" y="714">  │ │ │ ├─┬ del@2.2.2 </tspan>
<tspan x="10" y="730">  │ │ │ │ ├─┬ globby@5.0.0 </tspan>
<tspan x="10" y="746">  │ │ │ │ │ ├─┬ array-union@1.0.2 </tspan>
<tspan x="10" y="762">  │ │ │ │ │ │ └── array-uniq@1.0.3 </tspan>
<tspan x="10" y="778">  │ │ │ │ │ └── arrify@1.0.1 </tspan>
<tspan x="10" y="794">  │ │ │ │ ├── is-path-cwd@1.0.0 </tspan>
<tspan x="10" y="810">  │ │ │ │ ├─┬ is-path-in-cwd@1.0.0 </tspan>
<tspan x="10" y="826">  │ │ │ │ │ └── is-path-inside@1.0.0 </tspan>
<tspan x="10" y="842">  │ │ │ │ ├── pify@2.3.0 </tspan>
<tspan x="10" y="858">  │ │ │ │ └─┬ pinkie-promise@2.0.1 </tspan>
<tspan x="10" y="874">  │ │ │ │   └── pinkie@2.0.4 </tspan>
<tspan x="10" y="890">  │ │ │ └── write@0.2.1 </tspan>
<tspan x="10" y="906">  │ │ └── object-assign@4.1.1 </tspan>
<tspan x="10" y="922">  │ ├── globals@9.17.0 </tspan>
<tspan x="10" y="938">  │ ├── ignore@3.2.7 </tspan>
<tspan x="10" y="954">  │ ├── imurmurhash@0.1.4 </tspan>
<tspan x="10" y="970">  │ ├─┬ inquirer@0.12.0 </tspan>
<tspan x="10" y="986">  │ │ ├── ansi-escapes@1.4.0 </tspan>
<tspan x="10" y="1002">  │ │ ├── ansi-regex@2.1.1 </tspan>
<tspan x="10" y="1018">  │ │ ├─┬ cli-cursor@1.0.2 </tspan>
<tspan x="10" y="1034">  │ │ │ └─┬ restore-cursor@1.0.1 </tspan>
<tspan x="10" y="1050">  │ │ │   ├── exit-hook@1.1.1 </tspan>
<tspan x="10" y="1066">  │ │ │   └── onetime@1.1.0 </tspan>
<tspan x="10" y="1082">  │ │ ├── cli-width@2.1.0 </tspan>
<tspan x="10" y="1098">  │ │ ├── figures@1.7.0 </tspan>
<tspan x="10" y="1114">  │ │ ├─┬ readline2@1.0.1 </tspan>
<tspan x="10" y="1130">  │ │ │ ├── code-point-at@1.1.0 </tspan>
<tspan x="10" y="1146">  │ │ │ ├─┬ is-fullwidth-code-point@1.0.0 </tspan>
<tspan x="10" y="1162">  │ │ │ │ └── number-is-nan@1.0.1 </tspan>
<tspan x="10" y="1178">  │ │ │ └── mute-stream@0.0.5 </tspan>
<tspan x="10" y="1194">  │ │ ├── run-async@0.1.0 </tspan>
<tspan x="10" y="1210">  │ │ ├── rx-lite@3.1.2 </tspan>
<tspan x="10" y="1226">  │ │ ├── string-width@1.0.2 </tspan>
<tspan x="10" y="1242">  │ │ └── through@2.3.8 </tspan>
<tspan x="10" y="1258">  │ ├─┬ is-my-json-valid@2.16.0 </tspan>
<tspan x="10" y="1274">  │ │ ├── generate-function@2.0.0 </tspan>
<tspan x="10" y="1290">  │ │ ├─┬ generate-object-property@1.2.0 </tspan>
<tspan x="10" y="1306">  │ │ │ └── is-property@1.0.2 </tspan>
<tspan x="10" y="1322">  │ │ ├── jsonpointer@4.0.1 </tspan>
<tspan x="10" y="1338">  │ │ └── xtend@4.0.1 </tspan>
<tspan x="10" y="1354">  │ ├─┬ is-resolvable@1.0.0 </tspan>
<tspan x="10" y="1370">  │ │ └── tryit@1.0.3 </tspan>
<tspan x="10" y="1386">  │ ├─┬ js-yaml@3.8.3 </tspan>
<tspan x="10" y="1402">  │ │ ├─┬ argparse@1.0.9 </tspan>
<tspan x="10" y="1418">  │ │ │ └── sprintf-js@1.0.3 </tspan>
<tspan x="10" y="1434">  │ │ └── esprima@3.1.3 </tspan>
<tspan x="10" y="1450">  │ ├─┬ json-stable-stringify@1.0.1 </tspan>
<tspan x="10" y="1466">  │ │ └── jsonify@0.0.0 </tspan>
<tspan x="10" y="1482">  │ ├─┬ levn@0.3.0 </tspan>
<tspan x="10" y="1498">  │ │ ├── prelude-ls@1.1.2 </tspan>
<tspan x="10" y="1514">  │ │ └── type-check@0.3.2 </tspan>
<tspan x="10" y="1530">  │ ├─┬ mkdirp@0.5.1 </tspan>
<tspan x="10" y="1546">  │ │ └── minimist@0.0.8 </tspan>
<tspan x="10" y="1562">  │ ├─┬ optionator@0.8.2 </tspan>
<tspan x="10" y="1578">  │ │ ├── deep-is@0.1.3 </tspan>
<tspan x="10" y="1594">  │ │ ├── fast-levenshtein@2.0.6 </tspan>
<tspan x="10" y="1610">  │ │ └── wordwrap@1.0.0 </tspan>
<tspan x="10" y="1626">  │ ├── path-is-inside@1.0.2 </tspan>
<tspan x="10" y="1642">  │ ├── pluralize@1.2.1 </tspan>
<tspan x="10" y="1658">  │ ├── progress@1.1.8 </tspan>
<tspan x="10" y="1674">  │ ├─┬ require-uncached@1.0.3 </tspan>
<tspan x="10" y="1690">  │ │ ├─┬ caller-path@0.1.0 </tspan>
<tspan x="10" y="1706">  │ │ │ └── callsites@0.2.0 </tspan>
<tspan x="10" y="1722">  │ │ └── resolve-from@1.0.1 </tspan>
<tspan x="10" y="1738">  │ ├── shelljs@0.6.1 </tspan>
<tspan x="10" y="1754">  │ ├── strip-bom@3.0.0 </tspan>
<tspan x="10" y="1770">  │ ├── strip-json-comments@1.0.4 </tspan>
<tspan x="10" y="1786">  │ ├─┬ table@3.8.3 </tspan>
<tspan x="10" y="1802">  │ │ ├─┬ ajv@4.11.6 </tspan>
<tspan x="10" y="1818">  │ │ │ └── co@4.6.0 </tspan>
<tspan x="10" y="1834">  │ │ ├── ajv-keywords@1.5.1 </tspan>
<tspan x="10" y="1850">  │ │ ├── slice-ansi@0.0.4 </tspan>
<tspan x="10" y="1866">  │ │ └─┬ string-width@2.0.0 </tspan>
<tspan x="10" y="1882">  │ │   └── is-fullwidth-code-point@2.0.0 </tspan>
<tspan x="10" y="1898">  │ ├── text-table@0.2.0 </tspan>
<tspan x="10" y="1914">  │ └─┬ user-home@2.0.0 </tspan>
<tspan x="10" y="1930">  │   └── os-homedir@1.0.2 </tspan>
<tspan x="10" y="1946">  ├─┬ fs-extra@0.30.0 </tspan>
<tspan x="10" y="1962">  │ ├── graceful-fs@4.1.11 </tspan>
<tspan x="10" y="1978">  │ ├── jsonfile@2.4.0 </tspan>
<tspan x="10" y="1994">  │ ├── klaw@1.3.1 </tspan>
<tspan x="10" y="2010">  │ ├── path-is-absolute@1.0.1 </tspan>
<tspan x="10" y="2026">  │ └── rimraf@2.6.1 </tspan>
<tspan x="10" y="2042">  ├─┬ glob@7.0.6 </tspan>
<tspan x="10" y="2058">  │ ├── fs.realpath@1.0.0 </tspan>
<tspan x="10" y="2074">  │ ├─┬ inflight@1.0.6 </tspan>
<tspan x="10" y="2090">  │ │ └── wrappy@1.0.2 </tspan>
<tspan x="10" y="2106">  │ ├── inherits@2.0.3 </tspan>
<tspan x="10" y="2122">  │ ├─┬ minimatch@3.0.3 </tspan>
<tspan x="10" y="2138">  │ │ └─┬ brace-expansion@1.1.7 </tspan>
<tspan x="10" y="2154">  │ │   ├── balanced-match@0.4.2 </tspan>
<tspan x="10" y="2170">  │ │   └── concat-map@0.0.1 </tspan>
<tspan x="10" y="2186">  │ └── once@1.4.0 </tspan>
<tspan x="10" y="2202">  ├─┬ jshint@2.9.4 </tspan>
<tspan x="10" y="2218">  │ ├─┬ cli@1.0.1 </tspan>
<tspan x="10" y="2234">  │ │ └── glob@7.1.1 </tspan>
<tspan x="10" y="2250">  │ ├─┬ console-browserify@1.1.0 </tspan>
<tspan x="10" y="2266">  │ │ └── date-now@0.1.4 </tspan>
<tspan x="10" y="2282">  │ ├── exit@0.1.2 </tspan>
<tspan x="10" y="2298">  │ ├─┬ htmlparser2@3.8.3 </tspan>
<tspan x="10" y="2314">  │ │ ├── domelementtype@1.3.0 </tspan>
<tspan x="10" y="2330">  │ │ ├── domhandler@2.3.0 </tspan>
<tspan x="10" y="2346">  │ │ ├─┬ domutils@1.5.1 </tspan>
<tspan x="10" y="2362">  │ │ │ └─┬ dom-serializer@0.1.0 </tspan>
<tspan x="10" y="2378">  │ │ │   ├── domelementtype@1.1.3 </tspan>
<tspan x="10" y="2394">  │ │ │   └── entities@1.1.1 </tspan>
<tspan x="10" y="2410">  │ │ ├── entities@1.0.0 </tspan>
<tspan x="10" y="2426">  │ │ └─┬ readable-stream@1.1.14 </tspan>
<tspan x="10" y="2442">  │ │   ├── isarray@0.0.1 </tspan>
<tspan x="10" y="2458">  │ │   └── string_decoder@0.10.31 </tspan>
<tspan x="10" y="2474">  │ ├── lodash@3.7.0 </tspan>
<tspan x="10" y="2490">  │ └── shelljs@0.3.0 </tspan>
<tspan x="10" y="2506">  ├── lodash@4.13.1 </tspan>
<tspan x="10" y="2522">  ├── posix-getopt@1.2.0 </tspan>
<tspan x="10" y="2538">  └─┬ typhonjs-escomplex@0.0.9 </tspan>
<tspan x="10" y="2554">    ├── babylon@6.16.1 </tspan>
<tspan x="10" y="2570">    ├─┬ commander@2.9.0 </tspan>
<tspan x="10" y="2586">    │ └── graceful-readlink@1.0.1 </tspan>
<tspan x="10" y="2602">    ├─┬ typhonjs-escomplex-module@0.0.9 </tspan>
<tspan x="10" y="2618">    │ ├── escomplex-plugin-metrics-module@0.0.10 </tspan>
<tspan x="10" y="2634">    │ ├─┬ escomplex-plugin-syntax-babylon@0.0.10 </tspan>
<tspan x="10" y="2650">    │ │ └── escomplex-plugin-syntax-estree@0.0.10 </tspan>
<tspan x="10" y="2666">    │ ├── typhonjs-ast-walker@0.1.1 </tspan>
<tspan x="10" y="2682">    │ ├── typhonjs-escomplex-commons@0.0.14 </tspan>
<tspan x="10" y="2698">    │ └── typhonjs-plugin-manager@0.0.3 </tspan>
<tspan x="10" y="2714">    └─┬ typhonjs-escomplex-project@0.0.9 </tspan>
<tspan x="10" y="2730">      └── escomplex-plugin-metrics-project@0.0.10</tspan>
</text>
</svg>
